inDegrees=yes
name=ik_S40_A03_T02
DataType=double
version=3
OpenSimVersion=4.3-2021-08-27-4bc7ad9
endheader
time	pelvis_tilt	pelvis_list	pelvis_rotation	pelvis_tx	pelvis_ty	pelvis_tz	hip_flexion_r	hip_adduction_r	hip_rotation_r	knee_angle_r	knee_angle_r_beta	ankle_angle_r	subtalar_angle_r	mtp_angle_r	hip_flexion_l	hip_adduction_l	hip_rotation_l	knee_angle_l	knee_angle_l_beta	ankle_angle_l	subtalar_angle_l	mtp_angle_l	lumbar_extension	lumbar_bending	lumbar_rotation	arm_flex_r	arm_add_r	arm_rot_r	elbow_flex_r	pro_sup_r	wrist_flex_r	wrist_dev_r	arm_flex_l	arm_add_l	arm_rot_l	elbow_flex_l	pro_sup_l	wrist_flex_l	wrist_dev_l
14.99999999999977	-1.810590078128436	-2.545595098362816	51.43374936384033	0	0.9399999999999999	0	3.676394574932283	-5.013536202328211	-18.3768206487272	10.35762081800192	0.1807745859472419	0	0	0	5.597759771297251	3.269114688890067	-8.947417106335243	15.00819853613215	0.2619424792484992	0	0	0	0	0	0	41.54247973144667	-41.54247973144667	4.938950791489243	84.14181603264502	85.0610494803957	0	0	41.54247973144667	-41.54247973144667	4.938950791489243	84.14181603264502	85.06104948038454	0	0
15.01999999999977	-1.550511188256629	-2.76550816215417	54.73132267058425	0	0.9399999999999999	0	3.467338539089214	-4.727458159534044	-16.48665564202351	10.41585788806559	0.1817910145665676	0	0	0	5.422355961145337	2.805744642195861	-9.693458254701328	14.60234960192699	0.2548590790809093	0	0	0	0	0	0	41.54952982868636	-41.54952982868636	4.939166209531495	84.14484435406962	85.06083406236245	0	0	41.54952982868636	-41.54952982868636	4.939166209531495	84.14484435406962	85.06083406235133	0	0
15.03999999999977	-1.277103713720692	-3.188335925713804	59.52360372613718	0	0.9399999999999999	0	3.31669288605887	-4.201243610423379	-16.73064026903276	9.966772002363813	0.1739529872368366	0	0	0	5.659850770148328	2.174358239257178	-7.974979968848371	14.54447399260374	0.2538489591416206	0	0	0	0	0	0	41.5592144430613	-41.5592144430613	4.939463683607881	84.14902621486546	85.0605365882985	0	0	41.5592144430613	-41.5592144430613	4.939463683607881	84.14902621486546	85.06053658828743	0	0
15.05999999999977	-1.143480194797612	-3.491122040118321	62.50454103462877	0	0.9399999999999999	0	3.481540653180317	-3.890348368489863	-14.88897294032396	10.10924353719822	0.1764395846100667	0	0	0	6.026565090163727	1.544787540330687	-7.107170252960557	14.50580534359023	0.2531740638990368	0	0	0	0	0	0	41.56776771372584	-41.56776771372584	4.939726595439683	84.15272220331605	85.06027367647768	0	0	41.56776771372584	-41.56776771372584	4.939726595439683	84.15272220331605	85.06027367646674	0	0
15.07999999999977	-1.06125105891059	-3.670454900233151	65.41553449830174	0	0.9399999999999999	0	3.635295785365504	-3.882482293306654	-16.94996548786096	10.99828198273593	0.1919562326615121	0	0	0	6.017209476342028	1.711816854214218	-4.409579695720395	13.76522099278039	0.2402484285886604	0	0	0	0	0	0	41.56999796116686	-41.56999796116686	4.939805307632693	84.15382876822169	85.06019496428807	0	0	41.56999796116686	-41.56999796116686	4.939805307632693	84.15382876822169	85.06019496427712	0	0
15.09999999999977	-1.057735578566078	-3.803353734250285	68.18780400153645	0	0.9399999999999999	0	3.71847147459462	-3.416847978362746	-12.9550863010772	10.30189353435029	0.1798019613643281	0	0	0	6.347178553640155	1.400434303136691	-3.802832520914059	13.57037836836746	0.236847783269428	0	0	0	0	0	0	41.58087193956941	-41.58087193956941	4.940136475800545	84.15848428570948	85.05986379613404	0	0	41.58087193956941	-41.58087193956941	4.940136475800545	84.15848428570948	85.05986379612317	0	0
15.11999999999977	-1.13732186618327	-3.914155123307576	70.69838137405129	0	0.9399999999999999	0	3.79418510911119	-3.218910722910974	-12.47191149529632	10.26213616836469	0.1791080644259589	0	0	0	6.881921331060848	0.967244530136224	-5.272326185238906	13.74354379363129	0.2398700900908981	0	0	0	0	0	0	41.58752766334825	-41.58752766334825	4.940335790904364	84.16128621835098	85.0596644810385	0	0	41.58752766334825	-41.58752766334825	4.940335790904364	84.16128621835098	85.05966448102767	0	0
15.13999999999977	-1.371385004750162	-4.127847143052247	72.93123928374399	0	0.9399999999999999	0	4.057082603772535	-3.095840182446785	-11.67862550472582	10.46857654626655	0.1827111287294078	0	0	0	7.322654134078047	1.13938961591653	-5.419231622376777	13.51292812957294	0.2358450874464068	0	0	0	0	0	0	41.59456851541071	-41.59456851541071	4.940547149220274	84.16425745385715	85.05945312273143	0	0	41.59456851541071	-41.59456851541071	4.940547149220274	84.16425745385715	85.05945312272064	0	0
15.15999999999977	-1.52272364363192	-4.284908892156165	73.93031255082182	0	0.9399999999999999	0	4.052059335324448	-2.875566677260699	-10.95087913564029	10.18866574204181	0.1778257635837807	0	0	0	7.756929381030274	1.003388199369915	-5.562396514747015	13.42761488105128	0.2343560903641316	0	0	0	0	0	0	41.59489529394607	-41.59489529394607	4.940558629619664	84.16441884916314	85.0594416423325	0	0	41.59489529394607	-41.59489529394607	4.940558629619664	84.16441884916314	85.05944164232172	0	0
15.17999999999977	-1.938721813949762	-4.657033891183895	75.81209601070221	0	0.9399999999999999	0	4.25780298777766	-3.029354647511348	-11.04266774964307	9.927064564949122	0.1732599617164207	0	0	0	8.566672044385919	1.282466966250614	-3.644739422482285	13.54145381108212	0.2363429545101172	0	0	0	0	0	0	41.59595064510449	-41.59595064510449	4.940595630729185	84.1649390228533	85.05940464122455	0	0	41.59595064510449	-41.59595064510449	4.940595630729185	84.1649390228533	85.05940464121376	0	0
15.19999999999976	-2.388681410958463	-5.041756851072203	77.42727078574516	0	0.9399999999999999	0	4.467730792019514	-3.285964039845377	-10.80427166921981	9.540698282422358	0.166516597967638	0	0	0	9.518966350475875	1.580373260359898	-1.714715570166891	13.62276432305031	0.2377620906604444	0	0	0	0	0	0	41.60641840431686	-41.60641840431686	4.940913284032357	84.16940454468836	85.05908698793458	0	0	41.60641840431686	-41.60641840431686	4.940913284032357	84.16940454468836	85.05908698792382	0	0
15.21999999999976	-2.839002905857558	-5.671960886879231	78.81746230686609	0	0.9399999999999999	0	4.904191743569948	-3.487008158573442	-10.38303271417619	8.802004439291192	0.1536239582407886	0	0	0	10.75910049712002	2.182797681842108	-0.7169613049113592	13.62699497891204	0.2378359295347504	0	0	0	0	0	0	41.60689971178075	-41.60689971178075	4.940930144797784	84.16964157868291	85.05907012716985	0	0	41.60689971178075	-41.60689971178075	4.940930144797784	84.16964157868291	85.05907012715909	0	0
15.23999999999976	-3.108299261493296	-6.333099485863825	79.94880475033523	0	0.9399999999999999	0	5.277407905974443	-3.448009683539792	-9.93282219034837	7.512661348360474	0.131120676116207	0	0	0	12.04009390749164	2.62747097770804	-0.2116565503894041	14.17018239754938	0.2473163384453808	0	0	0	0	0	0	41.60783459940961	-41.60783459940961	4.940962937725731	84.17010259218652	85.0590373342433	0	0	41.60783459940961	-41.60783459940961	4.940962937725731	84.17010259218652	85.05903733423254	0	0
15.25999999999976	-3.187148416065423	-6.948620408857517	81.14957751145627	0	0.9399999999999999	0	5.71909078014748	-3.344895762722191	-9.714970994870916	7.299804758221872	0.1274056277837203	0	0	0	13.171934370256	2.855271700787916	0.9272860908781457	14.48676548962061	0.252841755758168	0	0	0	0	0	0	41.60821686053424	-41.60821686053424	4.94097630650252	84.17029053460999	85.05902396546712	0	0	41.60821686053424	-41.60821686053424	4.94097630650252	84.17029053460999	85.05902396545636	0	0
15.27999999999976	-3.2379901008651	-7.48570334101868	82.33863844794067	0	0.9399999999999999	0	6.069071562268691	-3.474014990160309	-9.659719038813954	7.183364091405734	0.125373354764561	0	0	0	14.21284876136863	3.177490211934576	1.254100264394735	15.02654464428747	0.2622626792407365	0	0	0	0	0	0	41.60868502205706	-41.60868502205706	4.940992702768484	84.1705210384835	85.05900756920182	0	0	41.60868502205706	-41.60868502205706	4.940992702768484	84.1705210384835	85.05900756919107	0	0
15.29999999999976	-3.373450514006055	-8.020598112700513	83.62261589639442	0	0.9399999999999999	0	6.265855548368723	-3.803078159394852	-10.81253169410202	6.56004272589114	0.1144943446383043	0	0	0	15.32331738794299	3.803727394595815	0.9369716911346674	15.82519456110026	0.2762017498598984	0	0	0	0	0	0	41.61811633928488	-41.61811633928488	4.941276345584878	84.17450843674007	85.05872392639724	0	0	41.61811633928488	-41.61811633928488	4.941276345584878	84.17450843674007	85.05872392638653	0	0
15.31999999999976	-3.53748740391549	-8.648379820818093	86.37785651900761	0	0.9399999999999999	0	6.287086618920227	-4.35113887076314	-13.6064081910044	5.578610662226906	0.09736512374272076	0	0	0	16.61844726702524	4.99972425676739	2.210953415238115	17.02205242315765	0.29709086023118	0	0	0	0	0	0	41.61998242016774	-41.61998242016774	4.941341467138248	84.1754239347659	85.0586588048467	0	0	41.61998242016774	-41.61998242016774	4.941341467138248	84.1754239347659	85.05865880483601	0	0
15.33999999999976	-3.55425564076402	-8.809762300058964	87.05644507703718	0	0.9399999999999999	0	6.035663120221827	-4.439763013138921	-14.38698273434527	4.722173165130896	0.08241746958085602	0	0	0	17.69043024015879	5.461692277541243	1.784560100260961	18.08243994786663	0.3155981138844245	0	0	0	0	0	0	41.6207594895039	-41.6207594895039	4.941368606602477	84.17580546943232	85.05863166538366	0	0	41.6207594895039	-41.6207594895039	4.941368606602477	84.17580546943232	85.05863166537297	0	0
15.35999999999976	-3.533739249392224	-9.00803500421827	88.37139675174764	0	0.9399999999999999	0	5.870164355410274	-4.581692215489258	-15.60827501722766	4.687858552838366	0.08181856661480605	0	0	0	18.81596091448606	6.216923219389225	2.019723742058467	19.67187551557383	0.3433389977892204	0	0	0	0	0	0	41.62132949255645	-41.62132949255645	4.941388486504412	84.17608494691373	85.05861178548255	0	0	41.62132949255645	-41.62132949255645	4.941388486504412	84.17608494691373	85.05861178547187	0	0
15.37999999999976	-3.481659700239533	-9.246145721499259	89.58354375115232	0	0.9399999999999999	0	5.753114832021516	-4.581459614077731	-16.92506929879964	3.865061778539302	0.06745805382849873	0	0	0	20.28895168920877	6.952498714013429	2.466379764802861	21.65351310090292	0.3779250982344831	0	0	0	0	0	0	41.62274241933547	-41.62274241933547	4.941437710895129	84.1767769575477	85.05856256109391	0	0	41.62274241933547	-41.62274241933547	4.941437710895129	84.1767769575477	85.05856256108322	0	0
